<svg width="185" height="24" viewBox="0 0 185 24" fill="none" xmlns="http://www.w3.org/2000/svg">
<path d="M17.6014 2.16634C16.6483 1.33193 15.5702 0.755248 14.3977 0.451595C13.2456 0.153047 11.8485 0.0012207 10.2474 0.0012207H4.15135C3.06943 0.0012207 2.26436 0.257665 1.7604 0.761626C1.25516 1.26686 1 2.07065 1 3.15257V20.0844C1 20.8537 1.07017 21.4916 1.20796 21.9803C1.35851 22.5187 1.68513 22.9397 2.17888 23.2344C2.6586 23.5215 3.33481 23.6606 4.24704 23.6606H10.3418C11.4122 23.6606 12.3895 23.5904 13.2456 23.4526C14.1119 23.3123 14.9348 23.0673 15.6889 22.7215C16.4467 22.3758 17.1548 21.9088 17.7953 21.3334C18.6029 20.5909 19.274 19.7373 19.7894 18.7958C20.3036 17.858 20.6902 16.7901 20.9364 15.6227C21.1814 14.4642 21.3051 13.1667 21.3051 11.7684C21.3051 7.50066 20.0574 4.27021 17.6014 2.16634ZM15.9938 11.7365C15.9938 14.8674 15.2385 17.0951 13.7432 18.3581C13.4255 18.6376 13.044 18.857 12.6077 19.0127C12.1586 19.1721 11.721 19.2729 11.3063 19.3125C10.8776 19.3533 10.2716 19.3737 9.50609 19.3737H6.24757V4.27276H9.04933C10.4413 4.27276 11.6431 4.42459 12.6192 4.72441C13.5544 5.01148 14.3556 5.69789 15.0024 6.76577C15.6608 7.84897 15.9938 9.52161 15.9938 11.7365Z" fill="white"/>
<path d="M110.775 0.0012207C110.054 0.0012207 109.47 0.255115 109.04 0.755248C108.62 1.2439 108.408 1.96731 108.408 2.90888V15.4594L100.095 2.88081C99.8475 2.48913 99.6089 2.11402 99.3767 1.75296C99.1356 1.37786 98.8957 1.06656 98.661 0.826695C98.416 0.576629 98.1277 0.375043 97.8036 0.227045C97.4745 0.0764944 97.0789 0.0012207 96.6286 0.0012207C96.0506 0.0012207 95.5058 0.164529 95.0082 0.487319C94.5094 0.811385 94.1458 1.23497 93.9263 1.75679C93.7464 2.2161 93.6597 2.82085 93.6597 3.60549V21.0897C93.6597 22.0109 93.8804 22.7305 94.3167 23.2293C94.762 23.7397 95.3578 23.9974 96.0889 23.9974C96.797 23.9974 97.3864 23.7422 97.8419 23.2408C98.2897 22.7471 98.5168 22.0224 98.5168 21.0897V8.75099L106.617 21.1701C106.866 21.5325 107.114 21.8871 107.362 22.2342C107.621 22.5952 107.906 22.9155 108.207 23.1847C108.521 23.4654 108.864 23.6733 109.226 23.8035C109.585 23.9323 109.992 23.9974 110.435 23.9974C111.69 23.9974 113.188 23.4309 113.188 20.7338V2.90888C113.188 1.96731 112.972 1.24262 112.547 0.753971C112.112 0.255114 111.516 0.0012207 110.775 0.0012207Z" fill="white"/>
<path d="M184.083 0.753971C183.648 0.253838 183.052 0.0012207 182.311 0.0012207C181.59 0.0012207 181.006 0.255115 180.576 0.755248C180.156 1.2439 179.944 1.96731 179.944 2.90888V15.4594L171.631 2.88081C171.383 2.48913 171.145 2.11402 170.912 1.75296C170.671 1.37786 170.431 1.06656 170.197 0.826695C169.952 0.576629 169.663 0.375043 169.339 0.227045C169.01 0.0764944 168.615 0.0012207 168.164 0.0012207C167.586 0.0012207 167.041 0.164529 166.544 0.487319C166.045 0.811385 165.681 1.23497 165.462 1.75679C165.282 2.2161 165.195 2.82085 165.195 3.60549V21.0897C165.195 22.0109 165.416 22.7305 165.852 23.2293C166.298 23.7397 166.893 23.9974 167.625 23.9974C168.333 23.9974 168.922 23.7422 169.378 23.2408C169.825 22.7471 170.052 22.0224 170.052 21.0897V8.75099L178.153 21.1701C178.402 21.5325 178.649 21.8871 178.898 22.2342C179.157 22.5952 179.441 22.9155 179.743 23.1847C180.056 23.4654 180.4 23.6733 180.762 23.8035C181.12 23.9323 181.527 23.9974 181.97 23.9974C183.226 23.9974 184.723 23.4309 184.723 20.7338V2.90888C184.723 1.96858 184.508 1.24262 184.083 0.753971Z" fill="white"/>
<path d="M42.8196 19.0828L36.901 4.46408C36.6254 3.7394 36.3932 3.14741 36.2107 2.70214C36.0232 2.24666 35.7897 1.81542 35.5179 1.42119C35.2322 1.00653 34.852 0.663328 34.3901 0.401779C33.9219 0.136402 33.3363 0.00244141 32.6524 0.00244141C31.9775 0.00244141 31.3982 0.136402 30.93 0.401779C30.4656 0.664604 30.0854 1.01419 29.7996 1.44032C29.5266 1.84732 29.2676 2.36276 29.029 2.97134L22.6383 19.2091C22.3958 19.8113 22.2262 20.268 22.1203 20.6061C22.0093 20.9608 21.9531 21.3117 21.9531 21.6485C21.9531 22.2622 22.2057 22.8133 22.7046 23.2892C23.1996 23.7613 23.7801 23.9999 24.4283 23.9999C25.1976 23.9999 25.7666 23.7626 26.1201 23.2931C26.4377 22.872 26.8039 22.0976 27.2415 20.9264L28.2558 18.2024L29.6656 14.195L32.6256 5.94407L35.6392 14.195L37.0834 18.2024L38.0965 20.8664L38.099 20.8728C38.2445 21.2249 38.418 21.6319 38.6195 22.0925C38.8326 22.5786 39.0291 22.932 39.2205 23.1744C39.4195 23.427 39.6696 23.6299 39.9643 23.7766C40.2603 23.9246 40.6137 23.9999 41.0169 23.9999C41.7097 23.9999 42.3093 23.7511 42.7992 23.2612C43.2892 22.7712 43.538 22.2175 43.538 21.6179C43.5354 21.068 43.3006 20.2387 42.8196 19.0828Z" fill="white"/>
<path d="M89.9651 19.0828L84.0465 4.46408C83.7709 3.7394 83.5387 3.14741 83.3562 2.70214C83.1687 2.24666 82.9352 1.81542 82.6635 1.42119C82.3777 1.00653 81.9975 0.663328 81.5356 0.401779C81.0674 0.136402 80.4818 0.00244141 79.7979 0.00244141C79.123 0.00244141 78.5437 0.136402 78.0755 0.401779C77.6111 0.664604 77.2309 1.01419 76.9451 1.44032C76.6721 1.84732 76.4131 2.36276 76.1745 2.97134L69.7838 19.2091C69.5414 19.8113 69.3717 20.268 69.2658 20.6061C69.1548 20.9608 69.0986 21.3117 69.0986 21.6485C69.0986 22.2622 69.3513 22.8133 69.8501 23.2892C70.3451 23.7613 70.9257 23.9999 71.5738 23.9999C72.3431 23.9999 72.9122 23.7626 73.2656 23.2931C73.5832 22.872 73.9494 22.0976 74.387 20.9264L75.4013 18.2024L76.8111 14.195L79.7711 5.94407L82.7847 14.195L84.2289 18.2024L85.242 20.8664L85.2445 20.8728C85.3899 21.2249 85.5635 21.6319 85.7651 22.0925C85.9781 22.5786 86.1746 22.932 86.366 23.1744C86.565 23.427 86.8151 23.6299 87.1098 23.7766C87.4058 23.9246 87.7592 23.9999 88.1624 23.9999C88.8552 23.9999 89.4548 23.7511 89.9447 23.2612C90.4347 22.7712 90.6834 22.2175 90.6834 21.6179C90.6809 21.068 90.4461 20.2387 89.9651 19.0828Z" fill="white"/>
<path d="M32.5556 15.897C32.2354 15.8587 31.9151 15.8932 31.6038 15.9965C31.29 16.1012 30.9863 16.2989 30.7018 16.5834C30.2119 17.0733 29.9644 17.673 29.9644 18.3658C29.9644 19.0598 30.18 19.6263 30.6036 20.0499C30.9901 20.4365 31.7429 20.8575 32.9001 21.3347L38.3913 23.6606C38.3913 23.6606 36.4878 18.8493 35.7618 17.0836L34.9823 16.734L34.9759 16.7314C34.6237 16.5847 34.2142 16.4201 33.746 16.2377C33.2509 16.0437 32.8618 15.9327 32.5556 15.897Z" fill="#F18903"/>
<path d="M79.7353 15.897C79.4151 15.8587 79.0948 15.8932 78.7835 15.9965C78.4697 16.1012 78.166 16.2989 77.8815 16.5834C77.3916 17.0733 77.144 17.673 77.144 18.3658C77.144 19.0598 77.3597 19.6263 77.7832 20.0499C78.1698 20.4365 78.9226 20.8575 80.0798 21.3347L85.571 23.6606C85.571 23.6606 83.6675 18.8493 82.9415 17.0836L82.162 16.734L82.1556 16.7314C81.8034 16.5847 81.3939 16.4201 80.9257 16.2377C80.4306 16.0437 80.0415 15.9327 79.7353 15.897Z" fill="#F18903"/>
<path d="M161.617 19.0828L155.698 4.46408C155.422 3.7394 155.19 3.14741 155.008 2.70214C154.82 2.24666 154.587 1.81542 154.315 1.42119C154.029 1.00653 153.649 0.663328 153.187 0.401779C152.719 0.136402 152.133 0.00244141 151.449 0.00244141C150.774 0.00244141 150.195 0.136402 149.727 0.401779C149.262 0.664604 148.882 1.01419 148.596 1.44032C148.323 1.84732 148.064 2.36276 147.826 2.97134L141.435 19.2091C141.193 19.8113 141.023 20.268 140.917 20.6061C140.806 20.9608 140.75 21.3117 140.75 21.6485C140.75 22.2622 141.003 22.8133 141.501 23.2892C141.996 23.7613 142.577 23.9999 143.225 23.9999C143.994 23.9999 144.564 23.7626 144.917 23.2931C145.235 22.872 145.601 22.0976 146.038 20.9264L147.053 18.2024L148.463 14.195L151.422 5.94407L154.436 14.195L155.88 18.2024L156.893 20.8664L156.896 20.8728C157.041 21.2249 157.215 21.6319 157.416 22.0925C157.63 22.5786 157.826 22.932 158.017 23.1744C158.216 23.427 158.466 23.6299 158.761 23.7766C159.057 23.9246 159.411 23.9999 159.814 23.9999C160.507 23.9999 161.106 23.7511 161.596 23.2612C162.086 22.7712 162.335 22.2175 162.335 21.6179C162.334 21.068 162.099 20.2387 161.617 19.0828Z" fill="white"/>
<path d="M151.388 15.897C151.068 15.8587 150.748 15.8932 150.436 15.9965C150.122 16.1012 149.819 16.2989 149.534 16.5834C149.044 17.0733 148.797 17.673 148.797 18.3658C148.797 19.0598 149.012 19.6263 149.436 20.0499C149.823 20.4365 150.575 20.8575 151.733 21.3347L157.224 23.6606C157.224 23.6606 155.32 18.8493 154.594 17.0836L153.815 16.734L153.808 16.7314C153.456 16.5847 153.047 16.4201 152.578 16.2377C152.083 16.0437 151.694 15.9327 151.388 15.897Z" fill="#F18903"/>
<path d="M66.8187 14.116V18.4603C66.8187 19.0727 66.7574 19.5537 66.6337 19.9313C66.5048 20.3205 66.27 20.6751 65.9319 20.9864C65.6104 21.2773 65.1996 21.5631 64.7097 21.8285C63.3254 22.5787 61.9743 23.1324 60.6895 23.4756C59.406 23.8227 57.9847 23.9962 56.4741 23.9962C54.7057 23.9962 53.0727 23.7193 51.6156 23.1733C50.1497 22.6272 48.8853 21.8196 47.8506 20.7734C46.8185 19.7297 46.0134 18.4488 45.4584 16.9662C44.9098 15.4863 44.6304 13.8162 44.6304 11.9981C44.6304 10.2106 44.9021 8.55202 45.4354 7.0631C45.9726 5.56653 46.7751 4.2792 47.8187 3.23428C48.8649 2.19063 50.1522 1.38302 51.645 0.828025C53.1326 0.276858 54.8397 0 56.719 0C58.2692 0 59.6611 0.209241 60.8617 0.623892C61.3478 0.794856 61.7982 0.978577 62.2154 1.18909C63.1021 1.6165 63.6775 2.58615 63.5091 3.66679C63.3522 4.67599 62.5191 5.48232 61.506 5.60991C60.9242 5.68263 60.3795 5.54229 59.938 5.25395C59.8372 5.16464 59.7249 5.08043 59.6101 4.99878C59.369 4.82781 59.1011 4.67471 58.8051 4.53692C58.1812 4.24603 57.3646 4.09803 56.3797 4.09803C55.3615 4.09803 54.4417 4.27409 53.6468 4.62368C52.8558 4.97071 52.1694 5.48232 51.608 6.13939C51.0428 6.80538 50.6014 7.63341 50.3015 8.6005C49.9966 9.57908 49.8422 10.6789 49.8422 11.8731C49.8422 14.449 50.4355 16.4546 51.6067 17.8287C52.7652 19.1888 54.4123 19.879 56.5022 19.879C57.5318 19.879 58.5103 19.7425 59.4136 19.4733C59.568 19.4274 59.7237 19.3776 59.8806 19.324C61.1896 18.8787 62.0521 17.6271 62.0521 16.2441C62.0521 15.6406 61.5622 15.1507 60.9587 15.1507H58.7732C57.8584 15.1507 57.1784 15.0104 56.6923 14.7259C56.1666 14.4158 55.8974 13.8927 55.8974 13.1706C55.8974 12.5863 56.113 12.0938 56.5379 11.711C56.9551 11.3359 57.5203 11.1433 58.2194 11.1433H63.4275C64.0871 11.1433 64.6548 11.2045 65.1192 11.3219C65.6283 11.4533 66.043 11.7442 66.353 12.192C66.6668 12.636 66.8187 13.2663 66.8187 14.116Z" fill="white"/>
<path d="M138.476 14.116V18.4603C138.476 19.0727 138.415 19.5537 138.291 19.9313C138.163 20.3205 137.928 20.6751 137.59 20.9864C137.268 21.2773 136.857 21.5631 136.367 21.8285C134.983 22.5787 133.632 23.1324 132.347 23.4756C131.064 23.8227 129.642 23.9962 128.132 23.9962C126.363 23.9962 124.73 23.7193 123.273 23.1733C121.807 22.6272 120.543 21.8196 119.508 20.7734C118.476 19.7297 117.671 18.4488 117.116 16.9662C116.567 15.4863 116.288 13.8162 116.288 11.9981C116.288 10.2106 116.56 8.55202 117.093 7.0631C117.63 5.56653 118.433 4.2792 119.476 3.23428C120.523 2.19063 121.81 1.38302 123.303 0.828025C124.79 0.276858 126.497 0 128.377 0C129.927 0 131.319 0.209241 132.519 0.623892C133.006 0.794856 133.456 0.978577 133.873 1.18909C134.76 1.6165 135.335 2.58615 135.167 3.66679C135.01 4.67599 134.177 5.48232 133.164 5.60991C132.582 5.68263 132.037 5.54229 131.596 5.25395C131.495 5.16464 131.383 5.08043 131.269 4.99878C131.028 4.82781 130.76 4.67471 130.464 4.53692C129.84 4.24603 129.024 4.09803 128.039 4.09803C127.021 4.09803 126.101 4.27409 125.306 4.62368C124.515 4.97071 123.828 5.48232 123.267 6.13939C122.702 6.80538 122.26 7.63341 121.961 8.6005C121.656 9.57908 121.501 10.6789 121.501 11.8731C121.501 14.449 122.094 16.4546 123.266 17.8287C124.424 19.1888 126.071 19.879 128.161 19.879C129.191 19.879 130.169 19.7425 131.073 19.4733C131.227 19.4274 131.383 19.3776 131.54 19.324C132.849 18.8787 133.711 17.6271 133.711 16.2441C133.711 15.6406 133.221 15.1507 132.618 15.1507H130.432C129.517 15.1507 128.837 15.0104 128.351 14.7259C127.826 14.4158 127.556 13.8927 127.556 13.1706C127.556 12.5863 127.772 12.0938 128.197 11.711C128.614 11.3359 129.179 11.1433 129.878 11.1433H135.086C135.746 11.1433 136.315 11.2045 136.778 11.3219C137.287 11.4533 137.702 11.7442 138.012 12.192C138.326 12.636 138.476 13.2663 138.476 14.116Z" fill="white"/>
<path d="M59.9392 19.1097C59.8218 19.0344 59.7121 18.9502 59.6113 18.8545C59.7274 18.9361 59.8384 19.0204 59.9392 19.1097Z" fill="#F18903"/>
</svg>
